<svg width="80" height="280" xmlns="http://www.w3.org/2000/svg">
<rect width="80" height="280" fill="black"/>
<path d="M 20 0   C 20 10 10 20 0 20   C 10 20 20 30 20 40   C 20 30 30 20 40 20   C 30 20 20 10 20 0" fill="#3232ff" />
<path d="M 20 4   C 20 14 14 20 4 20   C 14 20 20 26 20 36   C 20 26 26 20 36 20   C 26 20 20 14 20 4" fill="#7575ff" />
<path d="M 20 8   C 20 18 18 20 8 20   C 18 20 20 22 20 32   C 20 22 22 20 32 20   C 22 20 20 18 20 8" fill="#b8b8ff" />
<path d="M 60 0   C 60 10 50 20 40 20   C 50 20 60 30 60 40   C 60 30 70 20 80 20   C 70 20 60 10 60 0" fill="#5050ff" />
<path d="M 60 4   C 60 14 54 20 44 20   C 54 20 60 26 60 36   C 60 26 66 20 76 20   C 66 20 60 14 60 4" fill="#a7a7ff" />
<path d="M 60 8   C 60 18 58 20 48 20   C 58 20 60 22 60 32   C 60 22 62 20 72 20   C 62 20 60 18 60 8" fill="#ffffff" />
<path d="M 20 40   C 20 50 10 60 0 60   C 10 60 20 70 20 80   C 20 70 30 60 40 60   C 30 60 20 50 20 40" fill="#505050" />
<path d="M 20 44   C 20 54 14 60 4 60   C 14 60 20 66 20 76   C 20 66 26 60 36 60   C 26 60 20 54 20 44" fill="#8c8c8c" />
<path d="M 20 48   C 20 58 18 60 8 60   C 18 60 20 62 20 72   C 20 62 22 60 32 60   C 22 60 20 58 20 48" fill="#c8c8c8" />
<path d="M 60 40   C 60 50 50 60 40 60   C 50 60 60 70 60 80   C 60 70 70 60 80 60   C 70 60 60 50 60 40" fill="#787878" />
<path d="M 60 44   C 60 54 54 60 44 60   C 54 60 60 66 60 76   C 60 66 66 60 76 60   C 66 60 60 54 60 44" fill="#bbbbbb" />
<path d="M 60 48   C 60 58 58 60 48 60   C 58 60 60 62 60 72   C 60 62 62 60 72 60   C 62 60 60 58 60 48" fill="#ffffff" />
<path d="M 20 80   C 20 90 10 100 0 100   C 10 100 20 110 20 120   C 20 110 30 100 40 100   C 30 100 20 90 20 80" fill="#bea014" />
<path d="M 20 84   C 20 94 14 100 4 100   C 14 100 20 106 20 116   C 20 106 26 100 36 100   C 26 100 20 94 20 84" fill="#dec866" />
<path d="M 20 88   C 20 98 18 100 8 100   C 18 100 20 102 20 112   C 20 102 22 100 32 100   C 22 100 20 98 20 88" fill="#fff0b8" />
<path d="M 60 80   C 60 90 50 100 40 100   C 50 100 60 110 60 120   C 60 110 70 100 80 100   C 70 100 60 90 60 80" fill="#fac85a" />
<path d="M 60 84   C 60 94 54 100 44 100   C 54 100 60 106 60 116   C 60 106 66 100 76 100   C 66 100 60 94 60 84" fill="#fcdca5" />
<path d="M 60 88   C 60 98 58 100 48 100   C 58 100 60 102 60 112   C 60 102 62 100 72 100   C 62 100 60 98 60 88" fill="#fff0f0" />
<path d="M 20 120   C 20 130 10 140 0 140   C 10 140 20 150 20 160   C 20 150 30 140 40 140   C 30 140 20 130 20 120" fill="#f07832" />
<path d="M 20 124   C 20 134 14 140 4 140   C 14 140 20 146 20 156   C 20 146 26 140 36 140   C 26 140 20 134 20 124" fill="#f7aa69" />
<path d="M 20 128   C 20 138 18 140 8 140   C 18 140 20 142 20 152   C 20 142 22 140 32 140   C 22 140 20 138 20 128" fill="#ffdca0" />
<path d="M 60 120   C 60 130 50 140 40 140   C 50 140 60 150 60 160   C 60 150 70 140 80 140   C 70 140 60 130 60 120" fill="#ffb464" />
<path d="M 60 124   C 60 134 54 140 44 140   C 54 140 60 146 60 156   C 60 146 66 140 76 140   C 66 140 60 134 60 124" fill="#ffd9b1" />
<path d="M 60 128   C 60 138 58 140 48 140   C 58 140 60 142 60 152   C 60 142 62 140 72 140   C 62 140 60 138 60 128" fill="#ffffff" />
<path d="M 20 160   C 20 170 10 180 0 180   C 10 180 20 190 20 200   C 20 190 30 180 40 180   C 30 180 20 170 20 160" fill="#ff3232" />
<path d="M 20 164   C 20 174 14 180 4 180   C 14 180 20 186 20 196   C 20 186 26 180 36 180   C 26 180 20 174 20 164" fill="#ff7575" />
<path d="M 20 168   C 20 178 18 180 8 180   C 18 180 20 182 20 192   C 20 182 22 180 32 180   C 22 180 20 178 20 168" fill="#ffb8b8" />
<path d="M 60 160   C 60 170 50 180 40 180   C 50 180 60 190 60 200   C 60 190 70 180 80 180   C 70 180 60 170 60 160" fill="#ff7878" />
<path d="M 60 164   C 60 174 54 180 44 180   C 54 180 60 186 60 196   C 60 186 66 180 76 180   C 66 180 60 174 60 164" fill="#ffbbbb" />
<path d="M 60 168   C 60 178 58 180 48 180   C 58 180 60 182 60 192   C 60 182 62 180 72 180   C 62 180 60 178 60 168" fill="#ffffff" />
<path d="M 20 200   C 20 210 10 220 0 220   C 10 220 20 230 20 240   C 20 230 30 220 40 220   C 30 220 20 210 20 200" fill="#9c785e" />
<path d="M 20 204   C 20 214 14 220 4 220   C 14 220 20 226 20 236   C 20 226 26 220 36 220   C 26 220 20 214 20 204" fill="#cdb498" />
<path d="M 20 208   C 20 218 18 220 8 220   C 18 220 20 222 20 232   C 20 222 22 220 32 220   C 22 220 20 218 20 208" fill="#fff0d2" />
<path d="M 60 200   C 60 210 50 220 40 220   C 50 220 60 230 60 240   C 60 230 70 220 80 220   C 70 220 60 210 60 200" fill="#dcbe96" />
<path d="M 60 204   C 60 214 54 220 44 220   C 54 220 60 226 60 236   C 60 226 66 220 76 220   C 66 220 60 214 60 204" fill="#eddeca" />
<path d="M 60 208   C 60 218 58 220 48 220   C 58 220 60 222 60 232   C 60 222 62 220 72 220   C 62 220 60 218 60 208" fill="#ffffff" />
<path d="M 20 240   C 20 250 10 260 0 260   C 10 260 20 270 20 280   C 20 270 30 260 40 260   C 30 260 20 250 20 240" fill="#c800c8" />
<path d="M 20 244   C 20 254 14 260 4 260   C 14 260 20 266 20 276   C 20 266 26 260 36 260   C 26 260 20 254 20 244" fill="#730f73" />
<path d="M 20 248   C 20 258 18 260 8 260   C 18 260 20 262 20 272   C 20 262 22 260 32 260   C 22 260 20 258 20 248" fill="#1e1e1e" />
<path d="M 60 240   C 60 250 50 260 40 260   C 50 260 60 270 60 280   C 60 270 70 260 80 260   C 70 260 60 250 60 240" fill="#ff00fa" />
<path d="M 60 244   C 60 254 54 260 44 260   C 54 260 60 266 60 276   C 60 266 66 260 76 260   C 66 260 60 254 60 244" fill="#8e0f8c" />
<path d="M 60 248   C 60 258 58 260 48 260   C 58 260 60 262 60 272   C 60 262 62 260 72 260   C 62 260 60 258 60 248" fill="#1e1e1e" />
</svg>